<?xml version="1.0" ?><svg enable-background="new 0 0 52 52" id="Layer_1" version="1.1" viewBox="0 0 52 52" xml:space="preserve" xmlns="http://www.w3.org/2000/svg" xmlns:xlink="http://www.w3.org/1999/xlink"><g><path d="M50,38.000824v-34H2v34h15.9968262v7.9983521h-3v2h22v-2h-3V38.000824H50z M27.2509766,13.9988098h4.093689   c2.1377563,0,3.7813721,0.6096191,4.9293823,1.8321533c1.1494141,1.2224731,1.7227173,2.9208984,1.7227173,5.0969849   c0,2.1776733-0.5567017,3.8989258-1.6713867,5.1687012c-1.1146851,1.2681274-2.8207397,1.9021606-5.1167603,1.9021606h-3.9576416   V13.9988098z M16.0095825,27.9988098h-2.0128174v-14h2.0128174v6.0684814h5.9191284v-6.0684814h2.0128784v14h-2.0128784v-5.7277832   h-5.9191284V27.9988098z"/><path d="M34.8164673,24.5644226c0.7676392-0.8084717,1.1507568-2,1.1507568-3.5761719   c0-3.2045898-1.5630493-4.8068848-4.6906128-4.8068848h-2.0128174v9.5941772h2.2349243   C32.9424438,25.7755432,34.0488281,25.3713074,34.8164673,24.5644226z"/></g></svg>