<?xml version="1.0" ?><!DOCTYPE svg  PUBLIC '-//W3C//DTD SVG 1.1//EN'  'http://www.w3.org/Graphics/SVG/1.1/DTD/svg11.dtd'><svg enable-background="new 0 0 512 512" height="512px" id="Layer_1" version="1.1" viewBox="0 0 512 512" width="512px" xml:space="preserve" xmlns="http://www.w3.org/2000/svg" xmlns:xlink="http://www.w3.org/1999/xlink"><g><path d="M437.032,74.982C390.688,28.641,326.642,0,256.07,0C185.358,0,121.304,28.641,74.967,74.982   C28.765,121.339,0,185.407,0,255.997c0,70.737,28.765,134.663,74.967,181.02C121.304,483.363,185.358,512,256.07,512   c70.571,0,134.618-28.637,180.962-74.983C483.23,390.66,512,326.734,512,255.997C512,185.407,483.23,121.339,437.032,74.982z"/><path clip-rule="evenodd" d="M276.897,168.12c-5.665-0.717-12.893-3.125-14.167,4.388   c-1.416,7.795,6.657,7.234,11.901,8.365c35.714,7.8,47.9,20.548,53.852,55.146c0.277,1.419,0.427,3.257,0.427,4.816   c0.424,4.109,1.415,7.79,7.648,6.664c3.12-0.429,4.253-2.125,4.395-4.533c0.426-2.131,0-4.968,0.285-6.947   C341.379,202.698,312.327,172.508,276.897,168.12L276.897,168.12z M280.161,195.474c-3.685,0-7.372,0.424-8.787,4.397   c-2.128,5.67,2.269,7.225,6.657,7.932c14.599,2.131,22.253,10.638,23.811,24.809c0.141,1.984,0.853,3.545,1.7,4.827   c1.277,1.403,2.834,1.979,4.818,1.838c1.274,0,2.266-0.435,3.113-0.854c2.416-1.843,2.837-5.245,2.555-8.79   C314.311,213.624,295.888,195.045,280.161,195.474L280.161,195.474z M354.131,307.736c-7.225-5.675-15.164-10.774-22.531-16.02   c-15.161-10.209-29.049-11.047-40.244,5.528c-6.377,9.36-15.309,9.784-24.517,5.669c-25.65-11.197-45.348-28.631-56.966-54.288   c-1.704-3.968-2.834-7.79-2.979-11.334c-0.426-6.806,2.408-12.753,10.064-18.004c6.375-4.109,12.608-9.072,12.185-18.286   c-0.565-12.046-30.329-52.162-42.226-56.56c-4.823-1.702-9.641-1.414-14.6,0c-27.634,9.208-38.97,31.332-28.06,57.549   c6.235,14.748,12.897,28.495,20.832,41.39c33.87,56.701,83.749,98.095,148.089,125.166c4.392,1.843,9.353,2.696,12.043,3.262   c17.999,0.282,38.968-16.868,45.064-33.6C376.238,321.912,363.771,315.678,354.131,307.736L354.131,307.736z M265.567,152.53   c57.669,8.779,84.17,35.709,91.536,92.557c0,0.57,0,0.995,0,1.409c0.43,5.245-0.56,12.056,6.38,12.056   c6.098,0.142,6.38-4.393,6.38-8.79c-0.282-1.555-0.282-2.832-0.282-4.104c0.706-53.732-47.049-103.618-102.315-105.325   c-4.394,0.707-12.898-2.837-13.603,6.377C253.517,152.813,260.744,151.954,265.567,152.53L265.567,152.53z" fill="#FFFFFF" fill-rule="evenodd"/></g></svg>