<svg width="304" height="262" viewBox="0 0 304 262" fill="none" xmlns="http://www.w3.org/2000/svg">
<g clip-path="url(#clip0_0_128)">
<path d="M252.4 31.829L259 7.604" stroke="black" stroke-width="1.4" stroke-miterlimit="10" stroke-linecap="round"/>
<path d="M265.9 31.829L272.5 7.604" stroke="black" stroke-width="1.4" stroke-miterlimit="10" stroke-linecap="round"/>
<path d="M279.325 31.829L285.925 7.604" stroke="black" stroke-width="1.4" stroke-miterlimit="10" stroke-linecap="round"/>
<path d="M199.825 72.2542C199.825 72.2542 214.225 64.0792 213.175 46.3042C212.125 28.5292 199.825 27.4792 199.075 36.2542C198.927 40.2158 199.331 44.1788 200.275 48.0292C200.275 48.0292 179.95 50.7292 181.75 75.1792" fill="white"/>
<path d="M199.825 72.2542C199.825 72.2542 214.225 64.0792 213.175 46.3042C212.125 28.5292 199.825 27.4792 199.075 36.2542C198.927 40.2158 199.331 44.1788 200.275 48.0292C200.275 48.0292 179.95 50.7292 181.75 75.1792" stroke="black" stroke-width="1.4" stroke-miterlimit="10" stroke-linecap="round"/>
<path d="M254.95 46.229H35.8C35.5039 46.2361 35.2218 46.3569 35.0124 46.5664C34.8029 46.7758 34.6821 47.0579 34.675 47.354V260.204C34.6821 260.5 34.8029 260.782 35.0124 260.992C35.2218 261.201 35.5039 261.322 35.8 261.329H254.95C255.246 261.322 255.528 261.201 255.738 260.992C255.947 260.782 256.068 260.5 256.075 260.204V47.354C256.068 47.0579 255.947 46.7758 255.738 46.5664C255.528 46.3569 255.246 46.2361 254.95 46.229Z" fill="#2442FA"/>
<path d="M26.2 108.179C28.021 108.637 29.8777 108.938 31.75 109.079" stroke="white" stroke-width="1.4" stroke-linecap="round" stroke-linejoin="bevel"/>
<path d="M36.4 108.854C42.5504 108.068 48.204 105.069 52.3036 100.417C56.4032 95.7653 58.6681 89.7796 58.675 83.5792C58.6651 82.1464 58.5397 80.7168 58.3 79.3042" stroke="white" stroke-width="4" stroke-miterlimit="10" stroke-linecap="round" stroke-linejoin="bevel" stroke-dasharray="15 15"/>
<path d="M57.775 77.0542C57.2571 75.2476 56.5794 73.4907 55.75 71.8042" stroke="white" stroke-width="1.4" stroke-linecap="round" stroke-linejoin="bevel"/>
<path d="M186.7 37.3792H158.725L99.4 260.954C100.075 260.954 154.3 260.429 154.3 260.429L212.575 37.3792H186.7Z" fill="white" stroke="black" stroke-width="1.4" stroke-miterlimit="10" stroke-linecap="round"/>
<path d="M212.575 37.9791L220.525 9.0291C220.747 8.20669 220.805 7.34856 220.695 6.50378C220.585 5.65899 220.31 4.84413 219.885 4.10578C219.46 3.36743 218.894 2.72008 218.219 2.20073C217.544 1.68139 216.773 1.30025 215.95 1.07909H215.875C214.205 0.646003 212.432 0.881781 210.933 1.73625C209.434 2.59071 208.328 3.99639 207.85 5.6541L207.4 7.3791C207.442 5.9209 206.99 4.49125 206.12 3.32097C205.249 2.15068 204.009 1.30804 202.6 0.929095H202.525C200.855 0.496003 199.082 0.731781 197.583 1.58625C196.084 2.44071 194.978 3.84639 194.5 5.5041L193.675 8.4291C193.978 6.83327 193.667 5.18188 192.805 3.80522C191.943 2.42857 190.593 1.42816 189.025 1.0041H188.95C187.28 0.571004 185.507 0.80678 184.008 1.66124C182.509 2.51571 181.403 3.92139 180.925 5.57909L180.1 8.5041C180.403 6.90827 180.092 5.25688 179.23 3.88022C178.368 2.50357 177.018 1.50316 175.45 1.07909H175.375C173.705 0.646003 171.932 0.881781 170.433 1.73625C168.934 2.59071 167.828 3.99639 167.35 5.6541L158.5 38.2041" fill="white"/>
<path d="M212.575 37.9791L220.525 9.0291C220.747 8.20669 220.805 7.34856 220.695 6.50378C220.585 5.65899 220.31 4.84413 219.885 4.10578C219.46 3.36743 218.894 2.72008 218.219 2.20073C217.544 1.68139 216.773 1.30025 215.95 1.07909H215.875C214.205 0.646003 212.432 0.881781 210.933 1.73625C209.434 2.59071 208.328 3.99639 207.85 5.6541L207.4 7.3791C207.442 5.9209 206.99 4.49125 206.12 3.32097C205.249 2.15068 204.009 1.30804 202.6 0.929095H202.525C200.855 0.496003 199.082 0.731781 197.583 1.58625C196.084 2.44071 194.978 3.84639 194.5 5.5041L193.675 8.4291C193.978 6.83327 193.667 5.18188 192.805 3.80522C191.943 2.42857 190.593 1.42816 189.025 1.0041H188.95C187.28 0.571004 185.507 0.80678 184.008 1.66124C182.509 2.51571 181.403 3.92139 180.925 5.57909L180.1 8.5041C180.403 6.90827 180.092 5.25688 179.23 3.88022C178.368 2.50357 177.018 1.50316 175.45 1.07909H175.375C173.705 0.646003 171.932 0.881781 170.433 1.73625C168.934 2.59071 167.828 3.99639 167.35 5.6541L158.5 38.2041" stroke="black" stroke-width="1.4" stroke-miterlimit="10" stroke-linecap="round"/>
<path d="M173.2 34.829L180.475 7.604" stroke="black" stroke-width="1.4" stroke-miterlimit="10" stroke-linecap="round"/>
<path d="M186.4 34.829L193.975 7.604" stroke="black" stroke-width="1.4" stroke-miterlimit="10" stroke-linecap="round"/>
<path d="M200.125 34.829L207.4 7.604" stroke="black" stroke-width="1.4" stroke-miterlimit="10" stroke-linecap="round"/>
<path d="M170.275 34.8291H176.2" stroke="black" stroke-width="1.4" stroke-miterlimit="10" stroke-linecap="round"/>
<path d="M183.475 34.8291H189.4" stroke="black" stroke-width="1.4" stroke-miterlimit="10" stroke-linecap="round"/>
<path d="M196.675 34.8291H202.525" stroke="black" stroke-width="1.4" stroke-miterlimit="10" stroke-linecap="round"/>
<path d="M268.675 37.3792H240.7L181.675 260.879C182.35 260.879 236.275 260.504 236.275 260.504L294.55 37.4542H268.675V37.3792Z" fill="white" stroke="black" stroke-width="1.4" stroke-miterlimit="10" stroke-linecap="round"/>
<path d="M294.25 38.6541L302.425 9.0291C302.647 8.20669 302.705 7.34856 302.595 6.50378C302.485 5.65899 302.21 4.84413 301.785 4.10578C301.36 3.36743 300.794 2.72008 300.119 2.20073C299.444 1.68139 298.673 1.30025 297.85 1.07909H297.775C296.105 0.646003 294.332 0.881781 292.833 1.73625C291.334 2.59071 290.228 3.99639 289.75 5.6541L289.3 7.3791C289.341 5.9209 288.89 4.49125 288.02 3.32097C287.149 2.15068 285.909 1.30804 284.5 0.929095H284.425C282.755 0.496003 280.982 0.731781 279.483 1.58625C277.984 2.44071 276.878 3.84639 276.4 5.5041L275.575 8.4291C275.878 6.83327 275.567 5.18188 274.705 3.80522C273.843 2.42857 272.493 1.42816 270.925 1.0041H270.85C269.18 0.571004 267.407 0.80678 265.908 1.66124C264.409 2.51571 263.303 3.92139 262.825 5.57909L262 8.5041C262.303 6.90827 261.992 5.25688 261.13 3.88022C260.268 2.50357 258.918 1.50316 257.35 1.07909H257.275C255.605 0.646003 253.832 0.881781 252.333 1.73625C250.834 2.59071 249.728 3.99639 249.25 5.6541L240.4 38.2041" fill="white"/>
<path d="M294.25 38.6541L302.425 9.0291C302.647 8.20669 302.705 7.34856 302.595 6.50378C302.485 5.65899 302.21 4.84413 301.785 4.10578C301.36 3.36743 300.794 2.72008 300.119 2.20073C299.444 1.68139 298.673 1.30025 297.85 1.07909H297.775C296.105 0.646003 294.332 0.881781 292.833 1.73625C291.334 2.59071 290.228 3.99639 289.75 5.6541L289.3 7.3791C289.341 5.9209 288.89 4.49125 288.02 3.32097C287.149 2.15068 285.909 1.30804 284.5 0.929095H284.425C282.755 0.496003 280.982 0.731781 279.483 1.58625C277.984 2.44071 276.878 3.84639 276.4 5.5041L275.575 8.4291C275.878 6.83327 275.567 5.18188 274.705 3.80522C273.843 2.42857 272.493 1.42816 270.925 1.0041H270.85C269.18 0.571004 267.407 0.80678 265.908 1.66124C264.409 2.51571 263.303 3.92139 262.825 5.57909L262 8.5041C262.303 6.90827 261.992 5.25688 261.13 3.88022C260.268 2.50357 258.918 1.50316 257.35 1.07909H257.275C255.605 0.646003 253.832 0.881781 252.333 1.73625C250.834 2.59071 249.728 3.99639 249.25 5.6541L240.4 38.2041" stroke="black" stroke-width="1.4" stroke-miterlimit="10" stroke-linecap="round"/>
<path d="M255.175 34.829L262.375 7.604" stroke="black" stroke-width="1.4" stroke-miterlimit="10" stroke-linecap="round"/>
<path d="M268.3 34.829L275.875 7.604" stroke="black" stroke-width="1.4" stroke-miterlimit="10" stroke-linecap="round"/>
<path d="M282.025 34.829L289.3 7.604" stroke="black" stroke-width="1.4" stroke-miterlimit="10" stroke-linecap="round"/>
<path d="M252.175 34.8291H258.1" stroke="black" stroke-width="1.4" stroke-miterlimit="10" stroke-linecap="round"/>
<path d="M265.375 34.8291H271.3" stroke="black" stroke-width="1.4" stroke-miterlimit="10" stroke-linecap="round"/>
<path d="M278.575 34.8291H284.5" stroke="black" stroke-width="1.4" stroke-miterlimit="10" stroke-linecap="round"/>
<path d="M134.05 132.554L262.825 159.254L236.125 260.579L99.25 260.879L134.05 132.554Z" fill="white" stroke="black" stroke-width="1.4" stroke-miterlimit="10" stroke-linecap="round"/>
<path d="M211.3 148.754C211.3 148.754 261.325 164.204 252.475 198.104L262.75 158.954L211.3 148.754Z" fill="black"/>
<path d="M184.825 143.729C184.825 143.729 138.175 139.229 122.95 172.079C133.975 132.254 133.675 132.404 133.675 132.404L184.825 143.729Z" fill="black"/>
<path d="M223.525 120.254C223.359 121.161 223.015 122.026 222.514 122.799C222.013 123.573 221.364 124.24 220.605 124.763C219.845 125.285 218.99 125.653 218.088 125.844C217.187 126.036 216.256 126.048 215.35 125.879C214.6 125.729 189.625 120.329 189.625 120.329C189.625 120.329 178 118.379 181.375 103.829C181.375 103.829 218.275 111.704 218.5 111.704C219.395 111.93 220.236 112.331 220.974 112.885C221.712 113.438 222.333 114.133 222.8 114.928C223.268 115.724 223.573 116.604 223.697 117.518C223.822 118.433 223.763 119.363 223.525 120.254Z" fill="white" stroke="black" stroke-width="1.4" stroke-miterlimit="10" stroke-linecap="round"/>
<path d="M196.675 116.729C192.55 112.604 193.9 106.529 193.9 106.529L196.675 116.729Z" fill="white"/>
<path d="M196.675 116.729C192.55 112.604 193.9 106.529 193.9 106.529" stroke="black" stroke-width="1.4" stroke-miterlimit="10" stroke-linecap="round"/>
<path d="M210.7 120.404C208.475 117.246 207.561 113.347 208.15 109.529L210.7 120.404Z" fill="white"/>
<path d="M210.7 120.404C208.475 117.246 207.561 113.347 208.15 109.529" stroke="black" stroke-width="1.4" stroke-miterlimit="10" stroke-linecap="round"/>
<path d="M166.9 145.304C168.072 145.304 169.217 144.957 170.192 144.306C171.166 143.655 171.926 142.729 172.374 141.647C172.822 140.564 172.94 139.373 172.711 138.223C172.483 137.074 171.918 136.018 171.09 135.189C170.261 134.361 169.205 133.797 168.056 133.568C166.907 133.339 165.715 133.457 164.633 133.905C163.55 134.354 162.625 135.113 161.974 136.087C161.322 137.062 160.975 138.207 160.975 139.379C160.975 140.951 161.599 142.458 162.71 143.569C163.822 144.68 165.329 145.304 166.9 145.304Z" fill="white" stroke="black" stroke-width="1.4" stroke-miterlimit="10" stroke-linecap="round"/>
<path d="M194.65 166.304L189.025 164.879C188.483 164.736 187.918 164.702 187.363 164.779C186.808 164.856 186.274 165.044 185.792 165.33C185.31 165.616 184.89 165.996 184.557 166.447C184.223 166.897 183.983 167.41 183.85 167.954L180.7 180.629C180.399 181.445 180.247 182.309 180.25 183.179C180.25 185.089 181.009 186.92 182.359 188.27C183.709 189.62 185.54 190.379 187.45 190.379C188.983 190.375 190.475 189.887 191.714 188.985C192.954 188.082 193.876 186.812 194.35 185.354C194.434 185.191 194.485 185.012 194.5 184.829L197.875 171.404C198.091 170.303 197.878 169.161 197.278 168.212C196.678 167.263 195.738 166.581 194.65 166.304Z" fill="white" stroke="black" stroke-width="1.4" stroke-miterlimit="10" stroke-linecap="round"/>
<path d="M231.475 145.904L224.5 144.704C224.465 137.674 221.814 130.908 217.062 125.726C212.311 120.545 205.8 117.318 198.799 116.676C191.797 116.033 184.808 118.021 179.193 122.252C173.578 126.483 169.739 132.653 168.426 139.56C167.113 146.467 168.419 153.615 172.089 159.611C175.76 165.607 181.532 170.022 188.28 171.994C195.029 173.966 202.269 173.354 208.591 170.278C214.913 167.202 219.863 161.881 222.475 155.354L229.675 156.554C230.374 156.672 231.09 156.652 231.781 156.493C232.473 156.335 233.126 156.042 233.704 155.631C234.282 155.22 234.773 154.699 235.15 154.098C235.527 153.498 235.782 152.828 235.9 152.129C236.018 151.43 235.997 150.714 235.839 150.023C235.681 149.332 235.388 148.678 234.977 148.1C234.566 147.522 234.045 147.031 233.444 146.654C232.843 146.277 232.174 146.022 231.475 145.904Z" fill="white" stroke="black" stroke-width="1.4" stroke-miterlimit="10" stroke-linecap="round"/>
<path d="M180.1 139.304C180.723 139.304 181.332 139.119 181.85 138.773C182.368 138.427 182.772 137.935 183.01 137.36C183.249 136.784 183.311 136.151 183.189 135.54C183.068 134.929 182.768 134.367 182.327 133.927C181.887 133.486 181.326 133.186 180.715 133.065C180.103 132.943 179.47 133.006 178.895 133.244C178.319 133.482 177.827 133.886 177.481 134.404C177.135 134.922 176.95 135.531 176.95 136.154C176.95 136.99 177.282 137.791 177.873 138.382C178.463 138.972 179.265 139.304 180.1 139.304Z" fill="black"/>
<path d="M206.425 144.854C207.048 144.854 207.657 144.669 208.175 144.323C208.693 143.977 209.097 143.485 209.335 142.91C209.574 142.334 209.636 141.701 209.514 141.09C209.393 140.479 209.093 139.917 208.652 139.477C208.212 139.036 207.651 138.736 207.04 138.615C206.428 138.493 205.795 138.556 205.22 138.794C204.644 139.032 204.152 139.436 203.806 139.954C203.46 140.472 203.275 141.081 203.275 141.704C203.275 142.54 203.607 143.341 204.198 143.932C204.788 144.522 205.59 144.854 206.425 144.854Z" fill="black"/>
<path d="M180.1 144.029L201.55 148.604C201.142 150.986 199.864 153.132 197.964 154.625C196.063 156.118 193.675 156.852 191.264 156.684C188.853 156.516 186.59 155.458 184.916 153.715C183.241 151.973 182.273 149.67 182.2 147.254C182.184 146.444 182.285 145.635 182.5 144.854" stroke="black" stroke-width="1.4" stroke-miterlimit="10" stroke-linecap="round"/>
<path d="M223.45 149.729L230.425 151.004" stroke="black" stroke-width="1.4" stroke-miterlimit="10" stroke-linecap="round"/>
<path d="M164.65 139.004L167.8 139.604" stroke="black" stroke-width="1.4" stroke-miterlimit="10" stroke-linecap="round"/>
<path d="M183.4 170.354L195.025 182.204L197.425 172.829C192.615 173.214 187.787 172.362 183.4 170.354Z" fill="black"/>
<path d="M196.375 244.229H124.975V261.104H200.725C201.296 261.107 201.858 260.968 202.361 260.698C202.864 260.429 203.291 260.037 203.604 259.56C203.917 259.083 204.106 258.535 204.153 257.967C204.201 257.398 204.105 256.826 203.875 256.304L199.525 246.329C199.272 245.703 198.837 245.167 198.274 244.792C197.712 244.418 197.05 244.221 196.375 244.229Z" fill="white" stroke="black" stroke-width="1.4" stroke-miterlimit="10" stroke-linecap="round"/>
<path d="M129.925 256.304L105.7 184.904C105.458 184.181 104.994 183.553 104.375 183.109C103.756 182.665 103.012 182.427 102.25 182.429H94.975C103.975 199.604 108.25 220.604 113.65 238.679C115.6 245.204 118.075 253.004 119.8 261.104H126.475C127.048 261.091 127.61 260.946 128.117 260.679C128.624 260.411 129.062 260.03 129.397 259.565C129.732 259.099 129.953 258.562 130.045 257.997C130.137 257.431 130.096 256.851 129.925 256.304Z" fill="white" stroke="black" stroke-width="1.4" stroke-miterlimit="10" stroke-linecap="round"/>
<path d="M94.75 182.429H4.44999C3.86111 182.424 3.27963 182.56 2.75412 182.826C2.22862 183.092 1.77436 183.48 1.4293 183.957C1.08424 184.434 0.858409 184.987 0.770674 185.569C0.682939 186.152 0.73585 186.746 0.924986 187.304L25.075 258.629C25.3169 259.352 25.7805 259.98 26.3998 260.424C27.0192 260.869 27.7628 261.106 28.525 261.104H118.9C119.471 261.106 120.034 260.972 120.543 260.714C121.052 260.456 121.493 260.082 121.829 259.621C122.166 259.16 122.388 258.626 122.479 258.062C122.569 257.499 122.525 256.922 122.35 256.379L98.125 184.979C97.926 184.239 97.4862 183.587 96.8749 183.125C96.2637 182.663 95.516 182.418 94.75 182.429Z" fill="white" stroke="black" stroke-width="1.4" stroke-miterlimit="10" stroke-linecap="round"/>
<path d="M61.75 231.704C63.7048 231.689 65.6114 231.096 67.2296 229.999C68.8477 228.902 70.1049 227.351 70.8428 225.541C71.5806 223.731 71.766 221.743 71.3755 219.827C70.9851 217.912 70.0364 216.155 68.6489 214.778C67.2614 213.401 65.4973 212.465 63.579 212.089C61.6606 211.713 59.6739 211.914 57.8693 212.665C56.0647 213.416 54.5229 214.685 53.4384 216.312C52.3538 217.938 51.775 219.849 51.775 221.804C51.7798 223.109 52.0417 224.4 52.5456 225.604C53.0496 226.808 53.7857 227.901 54.712 228.82C55.6382 229.739 56.7365 230.467 57.9441 230.962C59.1517 231.457 60.445 231.709 61.75 231.704Z" fill="black"/>
<path d="M136.825 255.329H159.25" stroke="black" stroke-width="1.4" stroke-miterlimit="10" stroke-linecap="round"/>
<path d="M162.325 255.329H176.35" stroke="black" stroke-width="1.4" stroke-miterlimit="10" stroke-linecap="round"/>
<path d="M127.75 249.779H200.725" stroke="black" stroke-width="1.4" stroke-miterlimit="10" stroke-linecap="round"/>
<path d="M200.125 85.9791C200.95 81.4791 201.4 76.8291 203.65 72.7791L203.95 70.8291C203.95 70.8291 199.225 73.6791 187 76.7541L198.7 89.1291C199.052 88.0276 199.53 86.9706 200.125 85.9791Z" fill="black"/>
<path d="M229.15 80.1291C230.875 74.9541 231.325 74.5791 233.35 67.0791V64.9041C233.35 64.9041 236.8 69.3291 248.65 76.0041L226.675 89.2041C226.975 88.0041 228.625 81.3291 229.15 80.1291Z" fill="black"/>
<path d="M121.6 255.554C121.6 255.554 120.475 252.329 110.275 221.429C110.275 257.129 71.05 261.029 71.05 261.029H118.9C118.9 261.104 124 262.004 121.6 255.554Z" fill="black"/>
<path d="M130.075 34.379H52.6C50.6516 34.3822 48.784 35.1576 47.4063 36.5353C46.0286 37.913 45.2532 39.7806 45.25 41.729V88.604C45.2532 90.5524 46.0286 92.42 47.4063 93.7977C48.784 95.1754 50.6516 95.9508 52.6 95.954H130.075C132.023 95.9508 133.891 95.1754 135.269 93.7977C136.646 92.42 137.422 90.5524 137.425 88.604V41.729C137.43 40.7624 137.243 39.8045 136.875 38.9106C136.508 38.0167 135.966 37.2046 135.283 36.5211C134.599 35.8377 133.787 35.2965 132.893 34.9288C131.999 34.5611 131.042 34.3742 130.075 34.379Z" fill="white" stroke="black" stroke-width="1.4" stroke-miterlimit="10" stroke-linecap="round"/>
<path d="M51.625 34.3791C51.625 34.3791 131.05 33.9291 131.35 34.1541C137.5 35.5791 137.275 40.0791 137.275 40.0791V46.2291H45.475V40.0041C45.59 38.4592 46.2907 37.0167 47.4338 35.9712C48.5768 34.9257 50.076 34.3562 51.625 34.3791Z" fill="black"/>
<path d="M52.825 41.8042C53.2255 41.8042 53.617 41.6854 53.95 41.4629C54.283 41.2404 54.5426 40.9241 54.6958 40.5541C54.8491 40.1841 54.8892 39.7769 54.8111 39.3841C54.7329 38.9913 54.5401 38.6305 54.2569 38.3473C53.9737 38.0641 53.6129 37.8712 53.22 37.7931C52.8272 37.7149 52.4201 37.755 52.0501 37.9083C51.68 38.0616 51.3638 38.3211 51.1413 38.6541C50.9188 38.9871 50.8 39.3786 50.8 39.7792C50.8 40.0451 50.8524 40.3084 50.9541 40.5541C51.0559 40.7998 51.2051 41.023 51.3931 41.211C51.5811 41.3991 51.8044 41.5482 52.0501 41.65C52.2957 41.7518 52.5591 41.8042 52.825 41.8042Z" fill="white"/>
<path d="M60.85 41.8042C61.2505 41.8042 61.642 41.6854 61.975 41.4629C62.308 41.2404 62.5676 40.9241 62.7208 40.5541C62.8741 40.1841 62.9142 39.7769 62.8361 39.3841C62.7579 38.9913 62.5651 38.6305 62.2819 38.3473C61.9987 38.0641 61.6379 37.8712 61.245 37.7931C60.8522 37.7149 60.4451 37.755 60.0751 37.9083C59.705 38.0616 59.3888 38.3211 59.1663 38.6541C58.9437 38.9871 58.825 39.3786 58.825 39.7792C58.825 40.3162 59.0383 40.8313 59.4181 41.211C59.7979 41.5908 60.3129 41.8042 60.85 41.8042Z" fill="white"/>
<path d="M68.8 41.8042C69.2005 41.8042 69.592 41.6854 69.925 41.4629C70.258 41.2404 70.5176 40.9241 70.6708 40.5541C70.8241 40.1841 70.8642 39.7769 70.7861 39.3841C70.7079 38.9913 70.5151 38.6305 70.2319 38.3473C69.9487 38.0641 69.5879 37.8712 69.1951 37.7931C68.8022 37.7149 68.3951 37.755 68.0251 37.9083C67.655 38.0616 67.3388 38.3211 67.1163 38.6541C66.8938 38.9871 66.775 39.3786 66.775 39.7792C66.775 40.3162 66.9883 40.8313 67.3681 41.211C67.7479 41.5908 68.2629 41.8042 68.8 41.8042Z" fill="white"/>
<path d="M56.5 57.854H126.1" stroke="black" stroke-width="1.4" stroke-miterlimit="10" stroke-linecap="round"/>
<path d="M56.5 69.2542H126.1" stroke="black" stroke-width="1.4" stroke-miterlimit="10" stroke-linecap="round"/>
<path d="M56.5 80.5791H101.8" stroke="black" stroke-width="1.4" stroke-miterlimit="10" stroke-linecap="round"/>
<path d="M90.025 101.279H12.025C11.0989 101.278 10.1816 101.46 9.32582 101.814C8.47 102.167 7.69239 102.687 7.03753 103.342C6.38267 103.996 5.86341 104.774 5.50948 105.63C5.15556 106.486 4.97393 107.403 4.97498 108.329V155.729C4.97393 156.655 5.15556 157.572 5.50948 158.428C5.86341 159.284 6.38267 160.062 7.03753 160.717C7.69239 161.371 8.47 161.891 9.32582 162.245C10.1816 162.598 11.0989 162.78 12.025 162.779H90.025C90.9511 162.78 91.8683 162.598 92.7241 162.245C93.58 161.891 94.3576 161.371 95.0124 160.717C95.6673 160.062 96.1866 159.284 96.5405 158.428C96.8944 157.572 97.076 156.655 97.075 155.729V108.329C97.076 107.403 96.8944 106.486 96.5405 105.63C96.1866 104.774 95.6673 103.996 95.0124 103.342C94.3576 102.687 93.58 102.167 92.7241 101.814C91.8683 101.46 90.9511 101.278 90.025 101.279Z" fill="white" stroke="black" stroke-width="1.4" stroke-miterlimit="10" stroke-linecap="round"/>
<path d="M11.275 101.279C11.275 101.279 90.7 100.829 91 101.054C97.15 102.479 96.925 106.979 96.925 106.979V113.129H5.125V106.904C5.22937 105.355 5.92683 103.906 7.0723 102.859C8.21776 101.811 9.72304 101.245 11.275 101.279Z" fill="black"/>
<path d="M12.475 108.704C12.8755 108.704 13.267 108.585 13.6 108.363C13.933 108.14 14.1926 107.824 14.3458 107.454C14.4991 107.084 14.5392 106.677 14.4611 106.284C14.3829 105.891 14.1901 105.53 13.9069 105.247C13.6237 104.964 13.2629 104.771 12.87 104.693C12.4772 104.615 12.0701 104.655 11.7 104.808C11.33 104.961 11.0138 105.221 10.7913 105.554C10.5687 105.887 10.45 106.279 10.45 106.679C10.45 107.216 10.6633 107.731 11.0431 108.111C11.4229 108.491 11.9379 108.704 12.475 108.704Z" fill="white"/>
<path d="M20.5 108.704C20.9005 108.704 21.292 108.585 21.625 108.363C21.958 108.14 22.2176 107.824 22.3708 107.454C22.5241 107.084 22.5642 106.677 22.4861 106.284C22.4079 105.891 22.2151 105.53 21.9319 105.247C21.6487 104.964 21.2878 104.771 20.895 104.693C20.5022 104.615 20.0951 104.655 19.725 104.808C19.355 104.961 19.0388 105.221 18.8162 105.554C18.5937 105.887 18.475 106.279 18.475 106.679C18.475 107.216 18.6883 107.731 19.0681 108.111C19.4478 108.491 19.9629 108.704 20.5 108.704Z" fill="white"/>
<path d="M28.45 108.704C28.8505 108.704 29.242 108.585 29.575 108.363C29.908 108.14 30.1676 107.824 30.3208 107.454C30.4741 107.084 30.5142 106.677 30.4361 106.284C30.3579 105.891 30.1651 105.53 29.8819 105.247C29.5987 104.964 29.2379 104.771 28.845 104.693C28.4522 104.615 28.0451 104.655 27.6751 104.808C27.305 104.961 26.9888 105.221 26.7663 105.554C26.5438 105.887 26.425 106.279 26.425 106.679C26.425 107.216 26.6383 107.731 27.0181 108.111C27.3979 108.491 27.9129 108.704 28.45 108.704Z" fill="white"/>
<path d="M16.15 124.754H85.75" stroke="black" stroke-width="1.4" stroke-miterlimit="10" stroke-linecap="round"/>
<path d="M16.15 136.079H85.75" stroke="black" stroke-width="1.4" stroke-miterlimit="10" stroke-linecap="round"/>
<path d="M16.15 147.479H61.45" stroke="black" stroke-width="1.4" stroke-miterlimit="10" stroke-linecap="round"/>
<path d="M5.94998 261.254H275.125" stroke="black" stroke-width="1.4" stroke-miterlimit="10" stroke-linecap="round"/>
<path d="M288.25 180.404H209.725C207.917 180.411 206.185 181.132 204.906 182.41C203.628 183.689 202.907 185.421 202.9 187.229V235.154C202.907 236.962 203.628 238.694 204.906 239.973C206.185 241.251 207.917 241.972 209.725 241.979H288.25C290.058 241.972 291.79 241.251 293.069 239.973C294.347 238.694 295.068 236.962 295.075 235.154V187.229C295.068 185.421 294.347 183.689 293.069 182.41C291.79 181.132 290.058 180.411 288.25 180.404Z" fill="white" stroke="black" stroke-width="1.4" stroke-miterlimit="10" stroke-linecap="round"/>
<path d="M209.275 180.404C209.275 180.404 288.7 179.954 289 180.179C295.15 181.604 294.925 186.104 294.925 186.104V192.254H203.125V186.029C203.24 184.484 203.941 183.042 205.084 181.996C206.227 180.951 207.726 180.381 209.275 180.404Z" fill="black"/>
<path d="M210.475 187.904C210.875 187.904 211.267 187.785 211.6 187.563C211.933 187.34 212.193 187.024 212.346 186.654C212.499 186.284 212.539 185.877 212.461 185.484C212.383 185.091 212.19 184.73 211.907 184.447C211.624 184.164 211.263 183.971 210.87 183.893C210.477 183.815 210.07 183.855 209.7 184.008C209.33 184.161 209.014 184.421 208.791 184.754C208.569 185.087 208.45 185.479 208.45 185.879C208.45 186.416 208.663 186.931 209.043 187.311C209.423 187.691 209.938 187.904 210.475 187.904Z" fill="white"/>
<path d="M218.425 187.904C218.825 187.904 219.217 187.785 219.55 187.563C219.883 187.34 220.143 187.024 220.296 186.654C220.449 186.284 220.489 185.877 220.411 185.484C220.333 185.091 220.14 184.73 219.857 184.447C219.574 184.164 219.213 183.971 218.82 183.893C218.427 183.815 218.02 183.855 217.65 184.008C217.28 184.161 216.964 184.421 216.741 184.754C216.519 185.087 216.4 185.479 216.4 185.879C216.4 186.416 216.613 186.931 216.993 187.311C217.373 187.691 217.888 187.904 218.425 187.904Z" fill="white"/>
<path d="M226.45 187.904C226.85 187.904 227.242 187.785 227.575 187.563C227.908 187.34 228.168 187.024 228.321 186.654C228.474 186.284 228.514 185.877 228.436 185.484C228.358 185.091 228.165 184.73 227.882 184.447C227.599 184.164 227.238 183.971 226.845 183.893C226.452 183.815 226.045 183.855 225.675 184.008C225.305 184.161 224.989 184.421 224.766 184.754C224.544 185.087 224.425 185.479 224.425 185.879C224.425 186.416 224.638 186.931 225.018 187.311C225.398 187.691 225.913 187.904 226.45 187.904Z" fill="white"/>
<path d="M214.15 203.879H283.75" stroke="black" stroke-width="1.4" stroke-miterlimit="10" stroke-linecap="round"/>
<path d="M214.15 215.279H283.75" stroke="black" stroke-width="1.4" stroke-miterlimit="10" stroke-linecap="round"/>
<path d="M214.15 226.679H259.45" stroke="black" stroke-width="1.4" stroke-miterlimit="10" stroke-linecap="round"/>
<path d="M197.875 73.9792C213.925 68.7292 213.025 53.8042 213.025 53.8042C213.025 53.8042 212.575 47.5792 217.9 44.2042C221.65 41.8792 222.775 38.8792 220.3 35.3542C218.35 32.5792 205.375 30.4792 201.325 47.5792C201.325 47.5792 188.875 44.0542 186.025 58.3792" fill="white"/>
<path d="M197.875 73.9792C213.925 68.7292 213.025 53.8042 213.025 53.8042C213.025 53.8042 212.575 47.5792 217.9 44.2042C221.65 41.8792 222.775 38.8792 220.3 35.3542C218.35 32.5792 205.375 30.4792 201.325 47.5792C201.325 47.5792 188.875 44.0542 186.025 58.3792" stroke="black" stroke-width="1.4" stroke-miterlimit="10" stroke-linecap="round" stroke-linejoin="round"/>
<path d="M246.4 75.179C230.575 69.329 232 54.479 232 54.479C232 54.479 232.675 48.254 227.425 44.729C223.75 42.254 222.775 39.179 225.325 35.804C227.35 33.104 240.4 31.529 243.775 48.779C243.775 48.779 256.375 45.779 258.625 60.104" fill="white"/>
<path d="M246.4 75.179C230.575 69.329 232 54.479 232 54.479C232 54.479 232.675 48.254 227.425 44.729C223.75 42.254 222.775 39.179 225.325 35.804C227.35 33.104 240.4 31.529 243.775 48.779C243.775 48.779 256.375 45.779 258.625 60.104" stroke="black" stroke-width="1.4" stroke-miterlimit="10" stroke-linecap="round" stroke-linejoin="round"/>
</g>
<defs>
<clipPath id="clip0_0_128">
<rect width="303.381" height="261.954" fill="white"/>
</clipPath>
</defs>
</svg>
