<?xml version="1.0" ?><svg enable-background="new 0 0 52 52" id="Layer_1" version="1.1" viewBox="0 0 52 52" xml:space="preserve" xmlns="http://www.w3.org/2000/svg" xmlns:xlink="http://www.w3.org/1999/xlink"><g><g><g><path d="M2,32.0012779v18h48v-18H2z M48,48.0012779H4v-14h44V48.0012779z" fill="#0096E6"/></g></g><g><g><rect fill="#0096E6" height="21.0004883" width="2" x="38.0042114" y="11.9991436"/></g></g><g><g><g><path d="M44.9104614,11.3726788c-1.565918-1.831543-3.659668-2.8618164-5.8955078-2.9003906      c-2.1958008-0.0556641-4.3305664,0.9072266-5.940918,2.6635742l-1.4736328-1.3515625      c2.0024414-2.184082,4.6425781-3.3642578,7.4492188-3.3120117c2.8164063,0.0488281,5.4375,1.3276367,7.3813477,3.6005859      L44.9104614,11.3726788z" fill="#0096E6"/></g></g><g><g><path d="M48.2835083,8.0289288c-2.4394531-2.5361328-5.7158203-3.9663086-9.2260742-4.0273438      c-3.5151367-0.0688479-6.8320313,1.2529297-9.3569336,3.7011719L28.3079224,6.26721      c2.909668-2.8212893,6.7446289-4.34375,10.7841797-4.265625c4.0458984,0.0708008,7.8222656,1.71875,10.6328125,4.640625      L48.2835083,8.0289288z" fill="#0096E6"/></g></g></g><g><g><path d="M7,37.0012779v8h18v-8H7z M23,43.0012779H9v-4h14V43.0012779z" fill="#0096E6"/></g><g><rect fill="#D0E8F9" height="4" width="14" x="9" y="39.0012779"/></g></g><g><g><rect fill="#0096E6" height="2" width="6" x="36.0042114" y="36.99963"/></g></g><g><g><rect fill="#0096E6" height="2" width="2" x="44.0042114" y="36.99963"/></g></g></g></svg>