<?xml version="1.0" standalone="no"?>
<!DOCTYPE svg PUBLIC "-//W3C//DTD SVG 20010904//EN"
 "http://www.w3.org/TR/2001/REC-SVG-20010904/DTD/svg10.dtd">
<svg version="1.0" xmlns="http://www.w3.org/2000/svg"
 width="654.000000pt" height="692.000000pt" viewBox="0 0 654.000000 692.000000"
 preserveAspectRatio="xMidYMid meet">

<g transform="translate(0.000000,692.000000) scale(0.100000,-0.100000)"
fill="#000000" stroke="none">
<path d="M3315 6199 c-276 -25 -581 -140 -870 -327 -72 -47 -235 -166 -270
-199 -11 -10 -60 -54 -109 -98 -158 -142 -339 -345 -496 -555 -55 -74 -103
-140 -107 -145 -24 -31 -93 -136 -93 -141 0 -3 -10 -20 -22 -37 -13 -17 -27
-39 -33 -49 -5 -10 -32 -55 -60 -100 -27 -46 -62 -108 -79 -138 -16 -30 -32
-57 -35 -60 -3 -3 -23 -39 -43 -80 -21 -41 -58 -113 -82 -160 -52 -100 -89
-180 -163 -350 -30 -69 -63 -143 -74 -166 -10 -23 -19 -48 -19 -57 0 -9 -4
-18 -9 -22 -5 -3 -15 -22 -21 -43 -7 -20 -18 -50 -25 -67 -6 -16 -21 -55 -32
-85 -11 -30 -33 -89 -48 -130 -15 -41 -33 -91 -40 -110 -8 -19 -27 -78 -44
-130 -17 -52 -42 -126 -56 -165 -76 -208 -109 -342 -125 -495 -44 -437 68
-792 336 -1065 126 -128 383 -282 559 -336 39 -11 74 -25 79 -30 6 -5 22 -9
36 -9 14 0 30 -4 36 -9 8 -9 84 -21 304 -51 162 -23 564 1 760 44 36 8 110 24
165 36 480 102 1029 338 1635 702 174 105 557 371 730 508 52 41 108 82 124
90 16 8 35 25 44 38 8 12 53 53 101 90 47 37 109 87 137 112 27 25 86 76 130
115 339 297 507 542 596 865 20 74 23 107 23 260 -1 145 -5 192 -23 275 -22
98 -50 188 -78 252 -8 17 -14 34 -14 37 0 23 -196 377 -219 396 -3 3 -20 25
-36 50 -140 210 -429 514 -744 783 -262 224 -683 522 -855 606 -267 130 -551
179 -871 150z"/>
</g>
</svg>
